<svg viewBox="0 0 800 200" xmlns="http://www.w3.org/2000/svg" font-family="Inter, sans-serif">
  <!-- 
    Este path define la forma completa del banner rojo con el borde inferior festoneado hacia abajo.
    M 0 0: Mueve el cursor al punto inicial (esquina superior izquierda).
    L 800 0: Línea hasta la esquina superior derecha.
    L 800 150: Línea hasta la esquina inferior derecha.
    A rx ry x-axis-rotation large-arc-flag sweep-flag x y: Dibuja un arco elíptico.
      rx=50, ry=50: radios del arco (define el tamaño del festón).
      x-axis-rotation=0: rotación del eje x (sin rotación).
      large-arc-flag=0: elige el arco más pequeño.
      sweep-flag=1: dibuja el arco en una dirección que resulta en una curva hacia abajo.
      x, y: punto final del arco.
  -->
  <path d="M 0 0
           L 800 0
           L 800 100
           A 50 50 0 0 1 700 100
           A 50 50 0 0 1 600 100
           A 50 50 0 0 1 500 100
           A 50 50 0 0 1 400 100
           A 50 50 0 0 1 300 100
           A 50 50 0 0 1 200 100
           A 50 50 0 0 1 100 100
           A 50 50 0 0 1 0 100
           Z" fill="#C84C4C" stroke="white" stroke-width="2"/>
  <path d="M 0 0
           L 800 0
           L 800 150
           A 50 50 0 0 1 700 150
           A 50 50 0 0 1 600 150
           A 50 50 0 0 1 500 150
           A 50 50 0 0 1 400 150
           A 50 50 0 0 1 300 150
           A 50 50 0 0 1 200 150
           A 50 50 0 0 1 100 150
           A 50 50 0 0 1 0 150
           Z" fill="#C84C4C"/>
</svg>
